<svg width="15" height="10" viewBox="0 0 15 10" fill="none" xmlns="http://www.w3.org/2000/svg">
<path fill-rule="evenodd" clip-rule="evenodd" d="M8.82658 8.22186C8.7922 8.22186 8.75783 8.22186 8.72345 8.2203C8.1797 8.19842 7.75158 8.00623 7.49845 7.67498C7.24689 8.00623 6.81877 8.19686 6.27502 8.21873C6.24065 8.2203 6.20629 8.2203 6.17192 8.2203H6.17189C5.60783 8.2203 4.98751 8.03905 4.41252 7.7078C4.36095 7.67967 4.30783 7.64686 4.25627 7.61405C4.11408 7.52342 3.97658 7.42342 3.84845 7.31717C3.12033 6.75155 2.74689 6.0578 2.38595 5.38592C2.16564 4.97342 1.95627 4.58436 1.67502 4.2453C1.65002 4.21561 1.64689 4.17186 1.6672 4.13748C1.68908 4.10311 1.72814 4.08592 1.7672 4.09373C2.21408 4.18748 2.67814 4.17186 3.16877 4.15467C3.29062 4.14998 3.4156 4.14686 3.54059 4.14374L3.54064 4.14373C3.59064 4.14373 3.63283 4.18123 3.63595 4.23123C3.67345 4.76873 3.78127 5.24842 3.96408 5.69998C3.96564 5.70155 3.96564 5.70155 3.96564 5.70311C4.03127 5.87498 4.10783 6.04686 4.19377 6.21248C4.22658 6.27342 4.25939 6.3328 4.2922 6.39061C4.60314 6.9328 5.00939 7.38905 5.4672 7.71873L5.83127 7.34998C5.8297 7.34842 5.82658 7.34686 5.82345 7.3453C5.40002 7.05623 5.02345 6.63748 4.73439 6.13592C4.7047 6.08436 4.67502 6.03123 4.64689 5.97655C4.56877 5.82655 4.50002 5.67186 4.4422 5.51561C4.09377 4.66092 4.1172 3.87342 4.14064 3.11248L4.141 3.1005C4.15494 2.63773 4.16814 2.19939 4.09533 1.76873C4.08908 1.72811 4.10783 1.68905 4.1422 1.6703C4.17658 1.65155 4.22033 1.65623 4.25002 1.6828C4.58908 1.98592 4.99845 2.20467 5.43283 2.43592C5.47402 2.45833 5.51591 2.48075 5.55815 2.50334C5.62486 2.53903 5.69242 2.57517 5.75939 2.61248C5.80314 2.63748 5.82033 2.69061 5.79845 2.73592C5.56252 3.2203 5.41564 3.68905 5.34845 4.17186V4.17498C5.31877 4.35623 5.29845 4.54217 5.29064 4.72967C5.28752 4.79842 5.28595 4.86717 5.28595 4.9328C5.28595 5.73123 5.48752 6.49061 5.85314 7.0703C5.88283 7.11717 5.91564 7.16561 5.95002 7.21405C5.95158 7.21561 5.95314 7.21873 5.9547 7.22186L6.31252 6.85623C6.30891 6.85082 6.3053 6.84554 6.30172 6.84031C6.29293 6.82743 6.28436 6.81488 6.27658 6.80155C6.1922 6.66873 6.11877 6.52342 6.0547 6.36873C5.8797 5.94373 5.78595 5.44998 5.78595 4.9328C5.78595 4.87498 5.78752 4.81405 5.79064 4.75155V4.73748C5.79064 4.73123 5.79103 4.72459 5.79142 4.71795C5.79181 4.71131 5.7922 4.70467 5.7922 4.69842C5.80002 4.54686 5.8172 4.39686 5.8422 4.24998C5.9672 3.33748 6.38127 2.66717 6.78283 2.01873C7.0297 1.62186 7.26252 1.2453 7.41564 0.832796C7.4297 0.795296 7.46408 0.770296 7.5047 0.771859C7.54533 0.771859 7.5797 0.798421 7.5922 0.835921C7.73214 1.26189 7.97348 1.65002 8.22834 2.05989L8.24064 2.07967L8.24453 2.08592C8.63707 2.71679 9.0426 3.36853 9.16408 4.25155C9.18908 4.39842 9.20627 4.54842 9.21408 4.69998C9.21408 4.7078 9.21447 4.71561 9.21486 4.72342C9.21525 4.73123 9.21564 4.73905 9.21564 4.74686V4.75311C9.21564 4.76092 9.21603 4.76834 9.21642 4.77577C9.21681 4.78319 9.2172 4.79061 9.2172 4.79842C9.2172 4.8207 9.21761 4.84258 9.21801 4.86405C9.21839 4.88474 9.21877 4.90505 9.21877 4.92498V4.93592C9.21877 5.02498 9.21564 5.11248 9.21095 5.19842C9.17189 5.80467 9.0047 6.36717 8.72814 6.80467C8.7234 6.81179 8.71888 6.8189 8.71441 6.82593C8.70711 6.83743 8.69996 6.84869 8.6922 6.85936L9.05314 7.22342C9.05392 7.22186 9.0547 7.22069 9.05548 7.21951C9.05627 7.21834 9.05705 7.21717 9.05783 7.21561C9.0922 7.16873 9.12502 7.1203 9.1547 7.07186C9.52033 6.49061 9.72189 5.7328 9.72189 4.93436C9.72189 4.86873 9.72033 4.79998 9.7172 4.73123C9.70939 4.5453 9.68908 4.3578 9.65939 4.17655V4.17342C9.59064 3.6828 9.44377 3.22498 9.19533 2.72967C9.17189 2.68592 9.18908 2.63123 9.23283 2.60623C9.32517 2.55506 9.41831 2.50467 9.50998 2.45508C9.54705 2.43502 9.58388 2.41509 9.62033 2.3953C10.0328 2.17498 10.4219 1.96561 10.761 1.68436C10.7906 1.65936 10.8344 1.65623 10.8688 1.67655C10.9031 1.69842 10.9203 1.73748 10.9125 1.77655C10.8188 2.22342 10.8344 2.68748 10.8516 3.17811L10.8517 3.18284C10.8767 3.92668 10.9024 4.69392 10.5656 5.5203C10.5078 5.67498 10.4391 5.83123 10.361 5.98123C10.3328 6.03592 10.3031 6.08905 10.2735 6.14061C9.98439 6.64217 9.60783 7.06092 9.18439 7.34998C9.18283 7.35155 9.1797 7.35311 9.17658 7.35467L9.53283 7.71873C9.99064 7.38905 10.3953 6.93123 10.7078 6.39061C10.7422 6.33436 10.775 6.27342 10.8063 6.21248C10.8938 6.04686 10.9703 5.87498 11.0344 5.70311C11.0353 5.70221 11.0357 5.70183 11.0358 5.70137C11.036 5.70103 11.036 5.70065 11.036 5.69998C11.2219 5.24061 11.3235 4.7703 11.3563 4.21717C11.3594 4.16873 11.4 4.12967 11.45 4.12967H11.4516C11.6 4.13123 11.7485 4.13592 11.8922 4.14061L11.9042 4.14097C12.367 4.15491 12.8053 4.16811 13.236 4.0953C13.2766 4.08905 13.3156 4.1078 13.3344 4.14217C13.3531 4.17655 13.3485 4.2203 13.3219 4.24998C13.0188 4.58905 12.8 4.99842 12.5688 5.4328C12.2188 6.09061 11.8563 6.7703 11.15 7.31873C11.0235 7.42498 10.886 7.52498 10.7422 7.61561C10.6891 7.64842 10.6375 7.67967 10.586 7.70936C10.0125 8.04217 9.39064 8.22186 8.82658 8.22186ZM6.17502 8.72341C6.27346 8.72341 6.37346 8.71873 6.47034 8.70935C6.51565 8.70466 6.55784 8.73279 6.57034 8.77654C6.58284 8.82029 6.56096 8.8656 6.52034 8.88591C6.05784 9.10623 5.50784 9.22341 4.92815 9.22341C4.87034 9.22341 4.8094 9.22185 4.7469 9.21873C4.57815 9.21091 4.4094 9.19373 4.24534 9.1656C3.33284 9.0406 2.66252 8.62654 2.01409 8.22498C1.61721 7.9781 1.24065 7.74529 0.828149 7.59216C0.790649 7.5781 0.767212 7.54216 0.767212 7.5031C0.767212 7.46248 0.793774 7.4281 0.831274 7.4156C1.25724 7.27566 1.64536 7.03433 2.05523 6.77947L2.07502 6.76716L2.08702 6.7596C2.18494 6.69782 2.28707 6.6334 2.39065 6.57185C2.4344 6.54685 2.48909 6.55935 2.51721 6.59998C2.81877 7.04529 3.15159 7.40779 3.53596 7.70779L3.53752 7.70935C3.67815 7.82654 3.83127 7.93748 3.98909 8.03748C4.0469 8.07498 4.10627 8.11091 4.16252 8.14373C4.8094 8.51716 5.52346 8.72341 6.17502 8.72341ZM12.9875 6.78748C13.3844 7.03435 13.761 7.26716 14.1735 7.42029C14.211 7.43435 14.2344 7.46873 14.2344 7.50935C14.2344 7.54998 14.2078 7.58435 14.1703 7.59685C13.7444 7.73679 13.3562 7.97813 12.9464 8.23299L12.9266 8.24529L12.9203 8.24918C12.2895 8.64172 11.6377 9.04725 10.7547 9.16873C10.5922 9.19685 10.4235 9.21404 10.2531 9.22185C10.1922 9.22498 10.1313 9.22654 10.0719 9.22654C9.49221 9.22654 8.94221 9.11091 8.47971 8.88904C8.43909 8.87029 8.41721 8.82341 8.42971 8.77966C8.44221 8.73591 8.4844 8.70779 8.52971 8.71248C8.62659 8.72185 8.72659 8.72654 8.82502 8.72654C9.47659 8.72654 10.1906 8.52029 10.8375 8.14685C10.8953 8.11404 10.9547 8.0781 11.0125 8.0406C11.1703 7.93904 11.3219 7.82966 11.4641 7.71248L11.4656 7.71091C11.8563 7.40623 12.1797 7.04998 12.4844 6.58748C12.5125 6.54529 12.5672 6.53279 12.611 6.55779C12.7083 6.61479 12.8048 6.6745 12.899 6.73279C12.9288 6.75121 12.9583 6.76948 12.9875 6.78748Z" fill="white"/>
</svg>
